<mxfile host="app.diagrams.net" modified="2022-04-01T03:03:25.518Z" agent="5.0 (Windows NT 10.0; Win64; x64) AppleWebKit/537.36 (KHTML, like Gecko) Chrome/99.0.4844.74 Safari/537.36 Edg/99.0.1150.55" etag="GXw7Brs2ZdakIVOUJPrx" version="17.2.5" type="github">
  <diagram id="LFC1U5-IulLWduTaDpGM" name="Page-1">
    <mxGraphModel dx="1038" dy="579" grid="1" gridSize="10" guides="1" tooltips="1" connect="1" arrows="1" fold="1" page="1" pageScale="1" pageWidth="850" pageHeight="1100" math="0" shadow="0">
      <root>
        <mxCell id="0" />
        <mxCell id="1" parent="0" />
        <mxCell id="7aO51uQUJzcLtDhsxBdP-4" value="" style="edgeStyle=orthogonalEdgeStyle;rounded=0;orthogonalLoop=1;jettySize=auto;html=1;" edge="1" parent="1" source="7aO51uQUJzcLtDhsxBdP-1" target="7aO51uQUJzcLtDhsxBdP-3">
          <mxGeometry relative="1" as="geometry" />
        </mxCell>
        <mxCell id="7aO51uQUJzcLtDhsxBdP-1" value="Set message event for MatchData" style="rounded=1;whiteSpace=wrap;html=1;" vertex="1" parent="1">
          <mxGeometry x="200" y="80" width="120" height="60" as="geometry" />
        </mxCell>
        <mxCell id="7aO51uQUJzcLtDhsxBdP-6" value="" style="edgeStyle=orthogonalEdgeStyle;rounded=0;orthogonalLoop=1;jettySize=auto;html=1;" edge="1" parent="1" source="7aO51uQUJzcLtDhsxBdP-2" target="7aO51uQUJzcLtDhsxBdP-5">
          <mxGeometry relative="1" as="geometry" />
        </mxCell>
        <mxCell id="7aO51uQUJzcLtDhsxBdP-2" value="Set message event for game start" style="rounded=1;whiteSpace=wrap;html=1;" vertex="1" parent="1">
          <mxGeometry x="390" y="80" width="120" height="60" as="geometry" />
        </mxCell>
        <mxCell id="7aO51uQUJzcLtDhsxBdP-3" value="Invoke the request/msg handler" style="rounded=1;whiteSpace=wrap;html=1;" vertex="1" parent="1">
          <mxGeometry x="200" y="210" width="120" height="60" as="geometry" />
        </mxCell>
        <mxCell id="7aO51uQUJzcLtDhsxBdP-5" value="Invoke the start simulation&amp;nbsp; fn" style="rounded=1;whiteSpace=wrap;html=1;" vertex="1" parent="1">
          <mxGeometry x="390" y="210" width="120" height="60" as="geometry" />
        </mxCell>
      </root>
    </mxGraphModel>
  </diagram>
</mxfile>
